<?xml version="1.0" encoding="UTF-8"?>
<!--c Kurzy.cz, spol s r.o., https://www.kurzy.cz/-->
<svg width="670" height="350" viewBox="-67.9 -123.4 3530.8 2640.76" xmlns="http://www.w3.org/2000/svg" style="border:0px solid black"><style type="text/css">svg{font-family:"Arial";}</style><metadata xmlns:rdf="http://www.w3.org/1999/02/22-rdf-syntax-ns#" xmlns:cc="http://creativecommons.org/ns#"><rdf:RDF><cc:Work rdf:about="Kurzy.cz, spol s r.o., https://www.kurzy.cz/"><cc:license rdf:resource="http://creativecommons.org/licenses/by-sa/3.0/"/></cc:Work></rdf:RDF></metadata>
 <title>Obec Praha, okres Hlavní město Praha</title><g transform="rotate(-6 1697.5 1234.0)">
 <a href="https://regiony.kurzy.cz/okres/hlavni-mesto-praha/" title="Hlavní město Praha, okres"><path title="Hlavní město Praha, okres" d="M2255,0L2294,8L2279,59L2281,116L2264,128L2283,182L2318,167L2332,149L2342,179L2355,165L2405,148L2403,162L2424,171L2420,177L2471,203L2470,207L2477,271L2460,276L2471,336L2486,332L2494,322L2503,333L2510,333L2511,343L2544,348L2579,343L2580,350L2605,340L2626,318L2662,315L2712,325L2731,329L2716,332L2686,366L2679,384L2680,392L2644,395L2638,423L2659,445L2643,477L2660,490L2674,546L2707,602L2759,633L2847,619L2853,638L2930,625L2947,667L2942,694L2965,701L2975,696L2980,703L3014,709L3030,703L3110,731L3103,754L3110,753L3074,869L3074,907L3097,910L3101,926L3128,958L3149,946L3151,954L3171,958L3204,979L3296,1002L3304,1012L3284,1021L3280,1049L3382,1114L3390,1133L3387,1153L3395,1169L3350,1280L3344,1279L3325,1327L3260,1319L3247,1327L3154,1348L3104,1369L3079,1387L3014,1395L3018,1402L3011,1409L2965,1393L2967,1420L2916,1407L2921,1423L2878,1438L2882,1469L2872,1527L2866,1531L2884,1581L2884,1603L2913,1591L2964,1535L3002,1588L3015,1626L3040,1665L2969,1664L2953,1739L3019,1882L3030,1885L3022,1912L3015,1944L3006,1941L2996,1948L2992,1941L2977,1937L2965,1944L2962,1948L2971,1958L2970,1971L2960,1983L2965,1993L2925,2034L2875,1977L2838,2018L2829,1996L2818,2000L2799,1994L2789,1999L2840,2085L2785,2126L2744,2101L2709,2103L2665,2063L2644,2060L2641,2072L2601,2038L2588,2040L2593,2050L2580,2051L2569,2033L2568,2023L2577,2018L2568,2001L2539,2009L2538,1924L2496,1934L2483,1943L2483,1910L2471,1916L2464,1911L2444,1920L2433,1888L2395,1888L2407,1829L2358,1854L2320,1900L2295,1913L2292,1890L2267,1884L2261,1863L2201,1848L2202,1861L2191,1860L2192,1877L2171,1891L2139,1878L2112,1875L2103,1860L2067,1835L2009,1837L1958,1865L2012,1951L1998,1959L1967,1981L1929,1980L1929,1990L1921,1990L1924,2005L1917,2009L1915,2000L1884,2007L1884,2025L1844,2024L1841,2009L1855,2006L1845,1964L1672,1998L1676,2017L1669,2053L1687,2054L1684,2075L1639,2074L1603,2081L1591,2090L1586,2083L1583,2120L1550,2122L1530,2106L1511,2169L1502,2196L1490,2196L1485,2215L1457,2199L1426,2195L1392,2169L1365,2164L1334,2210L1314,2221L1252,2227L1231,2250L1174,2253L1152,2246L1139,2228L1114,2218L1100,2195L1073,2178L1052,2154L1045,2159L1038,2187L1032,2186L1013,2250L976,2334L976,2402L981,2442L968,2468L926,2426L930,2394L924,2373L907,2377L866,2372L842,2398L831,2386L823,2393L817,2388L811,2352L789,2337L780,2336L770,2355L726,2372L716,2357L679,2362L629,2350L604,2354L589,2340L571,2339L566,2340L553,2291L528,2259L499,2241L492,2213L522,2156L574,2126L618,2152L638,2145L651,2125L660,2091L670,2083L666,2069L657,2069L667,2058L627,2054L586,2067L562,2085L528,2083L525,2070L534,2057L552,2048L547,2044L552,2034L572,2032L572,2016L589,2016L594,2005L629,1985L617,1965L630,1952L632,1932L606,1918L611,1894L667,1879L638,1865L633,1845L616,1836L554,1859L553,1852L489,1874L473,1834L469,1805L440,1812L422,1791L426,1783L418,1771L416,1766L381,1759L379,1750L390,1736L360,1724L344,1704L368,1699L388,1686L401,1604L415,1613L435,1653L453,1665L469,1668L489,1614L487,1604L505,1590L525,1531L526,1490L417,1463L397,1474L398,1461L373,1447L340,1422L299,1365L249,1315L227,1261L221,1225L230,1226L244,1188L239,1171L226,1166L228,1161L248,1160L261,1149L260,1107L205,1122L195,1085L158,1092L150,1061L116,1060L99,1041L101,996L142,998L183,983L191,950L185,945L190,904L314,904L332,932L328,907L356,908L367,898L380,908L420,918L424,904L420,874L391,857L398,825L379,817L326,816L328,764L323,742L304,756L284,758L264,738L235,736L249,635L208,624L201,613L207,602L235,598L181,544L145,547L101,549L86,559L59,541L11,555L0,526L10,514L46,507L51,501L81,491L93,488L99,496L112,492L101,454L115,442L128,449L157,468L193,464L239,451L250,429L268,445L372,413L410,401L446,447L470,443L542,403L531,354L573,339L586,307L594,303L606,313L617,306L630,328L649,334L687,333L677,395L684,442L700,469L700,485L752,475L836,485L986,516L992,514L986,499L992,495L963,417L1001,366L983,362L985,284L972,286L972,272L982,261L998,256L1002,242L990,240L1042,180L1070,168L1080,176L1112,174L1116,180L1164,199L1204,199L1209,210L1216,208L1243,237L1247,262L1253,268L1266,269L1281,260L1285,248L1292,250L1300,250L1312,203L1361,220L1366,213L1427,214L1437,207L1474,203L1462,196L1462,166L1526,169L1526,122L1584,114L1586,133L1694,144L1697,138L1757,139L1784,133L1790,78L1811,75L1819,29L1913,38L1912,11L2042,33L2105,47L2124,19L2177,16L2178,21L2199,21L2251,10L2255,0Z" fill-opacity="0.7" fill="#5179A9"/></a>
 <a href="https://www.kurzy.cz/obec/praha/" title="Praha, hlavní město v okrese Hlavní město Praha"><path title="Praha, hlavní město v okrese Hlavní město Praha" d="M2255,0L2274,6L2294,8L2282,51L2279,59L2278,76L2281,116L2266,124L2264,128L2271,138L2270,139L2283,182L2293,177L2318,167L2323,162L2332,149L2333,150L2337,159L2343,176L2342,179L2355,165L2362,166L2367,163L2380,158L2382,155L2385,153L2393,152L2397,149L2405,148L2403,162L2424,171L2420,177L2471,203L2470,207L2473,208L2477,271L2460,276L2471,336L2486,332L2492,327L2494,322L2502,328L2500,330L2503,333L2510,333L2511,343L2544,348L2579,343L2580,350L2605,340L2620,328L2626,318L2648,316L2662,317L2662,315L2691,325L2712,325L2726,325L2731,326L2731,329L2726,327L2721,328L2716,332L2708,343L2701,349L2696,359L2686,366L2677,383L2679,384L2675,389L2680,392L2673,395L2660,395L2649,393L2645,393L2644,395L2643,405L2638,414L2639,418L2638,423L2642,429L2659,443L2659,445L2643,477L2655,481L2660,490L2667,524L2674,546L2691,579L2707,602L2750,624L2759,633L2847,619L2851,638L2853,638L2930,625L2943,648L2947,667L2942,694L2965,701L2975,696L2980,703L3014,709L3018,709L3030,703L3047,713L3063,715L3110,731L3103,754L3110,753L3083,836L3082,845L3074,869L3074,907L3097,910L3101,926L3119,946L3121,945L3128,958L3149,946L3151,954L3163,956L3171,960L3171,958L3204,979L3296,1002L3298,1003L3304,1012L3284,1021L3280,1049L3293,1057L3308,1062L3316,1077L3326,1077L3330,1078L3345,1090L3382,1114L3389,1127L3390,1133L3387,1153L3391,1164L3395,1169L3350,1280L3344,1279L3325,1327L3278,1324L3260,1319L3247,1327L3205,1339L3204,1338L3193,1343L3178,1341L3157,1351L3154,1348L3126,1358L3104,1369L3094,1376L3079,1387L3074,1387L3053,1390L3041,1390L3014,1395L3011,1397L3012,1399L3015,1399L3014,1402L3018,1402L3017,1405L3013,1405L3011,1409L3010,1406L2986,1402L2965,1393L2967,1420L2916,1407L2921,1423L2907,1426L2899,1433L2878,1438L2878,1459L2879,1461L2882,1462L2882,1469L2879,1484L2873,1500L2872,1527L2866,1531L2884,1581L2883,1592L2884,1603L2901,1598L2913,1591L2928,1570L2948,1554L2957,1540L2964,1535L2982,1564L3002,1588L3004,1599L3015,1626L3040,1665L2996,1668L2969,1664L2961,1705L2953,1739L3019,1882L3030,1885L3024,1902L3022,1912L3015,1944L3006,1941L3004,1945L3002,1944L2996,1948L2992,1941L2984,1938L2977,1937L2975,1941L2973,1941L2972,1943L2965,1944L2962,1948L2968,1953L2971,1958L2971,1963L2969,1966L2970,1971L2960,1983L2961,1991L2965,1993L2958,2005L2948,2011L2925,2034L2875,1977L2849,2006L2841,2012L2838,2018L2836,2017L2838,2013L2837,2008L2829,1996L2821,1996L2822,2000L2818,2000L2799,1994L2789,1999L2795,2005L2817,2053L2840,2085L2785,2126L2776,2116L2761,2112L2744,2101L2709,2103L2703,2095L2665,2063L2658,2061L2657,2064L2644,2060L2641,2072L2627,2059L2625,2062L2616,2056L2606,2041L2601,2038L2588,2040L2593,2050L2589,2052L2588,2051L2586,2053L2580,2051L2575,2040L2569,2033L2568,2023L2577,2018L2576,2015L2568,2007L2568,2001L2552,2004L2539,2009L2538,1960L2537,1941L2538,1924L2496,1934L2489,1941L2483,1943L2482,1932L2486,1918L2483,1910L2479,1914L2471,1916L2464,1911L2444,1920L2440,1914L2433,1888L2395,1888L2399,1870L2401,1854L2407,1829L2358,1854L2345,1869L2343,1875L2326,1890L2320,1900L2298,1910L2295,1913L2294,1915L2292,1912L2293,1901L2292,1890L2284,1890L2267,1884L2266,1867L2261,1863L2235,1856L2224,1855L2209,1851L2205,1851L2201,1848L2199,1854L2202,1861L2198,1860L2196,1857L2191,1860L2195,1872L2192,1877L2177,1885L2171,1891L2139,1878L2127,1880L2112,1875L2107,1870L2103,1860L2067,1835L2053,1835L2023,1839L2009,1837L2003,1842L1974,1859L1958,1865L1971,1882L1985,1912L2012,1951L1998,1959L1967,1981L1929,1980L1929,1990L1921,1990L1924,2005L1917,2009L1915,2000L1904,2001L1905,2002L1885,2003L1884,2007L1884,2025L1855,2025L1856,2023L1844,2024L1841,2009L1855,2006L1845,1964L1672,1998L1672,2006L1675,2006L1676,2017L1675,2024L1670,2031L1669,2053L1687,2054L1683,2067L1684,2075L1653,2075L1639,2074L1616,2079L1605,2083L1603,2081L1591,2090L1589,2083L1586,2083L1583,2120L1550,2122L1551,2119L1530,2106L1511,2169L1502,2196L1495,2194L1494,2198L1490,2196L1489,2199L1491,2200L1485,2215L1457,2199L1426,2195L1404,2176L1392,2169L1386,2167L1373,2167L1365,2164L1347,2195L1334,2210L1314,2221L1299,2219L1291,2220L1286,2222L1270,2223L1252,2227L1244,2234L1244,2237L1231,2250L1205,2254L1186,2252L1174,2253L1167,2252L1152,2246L1144,2238L1139,2228L1114,2218L1106,2207L1100,2195L1087,2189L1073,2178L1060,2159L1053,2160L1052,2154L1048,2156L1045,2159L1038,2187L1032,2186L1013,2250L988,2298L976,2334L978,2335L974,2376L976,2402L981,2442L976,2458L968,2468L941,2441L937,2440L938,2435L926,2426L928,2410L927,2399L930,2394L926,2374L924,2373L911,2374L907,2377L866,2372L856,2380L843,2397L842,2398L831,2386L823,2393L817,2388L812,2365L813,2358L811,2352L808,2348L796,2340L789,2337L780,2336L777,2348L770,2355L766,2356L764,2355L726,2372L716,2357L679,2362L665,2355L642,2353L629,2350L610,2355L604,2354L592,2347L591,2341L589,2340L571,2339L566,2340L564,2320L559,2305L553,2291L528,2259L517,2251L499,2241L493,2230L491,2222L492,2213L501,2202L509,2182L512,2171L515,2165L522,2156L574,2126L587,2131L605,2144L618,2152L630,2149L638,2145L647,2135L651,2125L654,2110L660,2091L670,2083L669,2074L666,2069L659,2071L657,2069L667,2058L642,2053L627,2054L586,2067L573,2075L562,2085L555,2083L528,2083L524,2075L525,2070L534,2057L552,2048L551,2044L547,2044L549,2039L553,2036L552,2034L572,2032L572,2016L589,2016L596,2010L594,2005L629,1985L628,1980L624,1978L624,1971L617,1965L618,1962L625,1959L630,1952L631,1937L630,1935L632,1932L629,1929L625,1930L624,1927L618,1925L611,1918L606,1918L603,1912L606,1900L611,1894L614,1892L628,1892L645,1888L667,1879L638,1865L633,1845L626,1838L616,1836L565,1853L554,1859L553,1852L515,1866L489,1874L488,1865L485,1860L485,1855L473,1834L469,1805L453,1807L440,1812L436,1804L428,1799L422,1791L426,1783L424,1782L421,1773L418,1771L419,1768L416,1766L392,1764L381,1759L379,1754L379,1750L386,1743L390,1736L386,1734L376,1734L373,1729L360,1724L348,1706L344,1704L352,1703L357,1700L368,1699L374,1694L377,1688L388,1686L391,1644L397,1614L401,1604L415,1613L429,1644L435,1653L453,1665L469,1668L470,1657L475,1644L489,1614L487,1604L492,1598L503,1594L505,1590L513,1560L525,1531L528,1517L526,1498L524,1493L526,1490L449,1468L417,1463L413,1465L409,1464L406,1468L400,1468L397,1474L396,1473L398,1461L390,1454L373,1447L346,1429L340,1422L330,1413L321,1402L299,1365L285,1349L261,1328L249,1315L235,1292L227,1261L225,1232L221,1229L221,1225L230,1226L235,1210L243,1195L239,1195L239,1193L243,1192L244,1188L242,1177L239,1171L234,1167L226,1166L228,1161L240,1162L248,1160L261,1149L257,1121L260,1107L249,1107L227,1117L205,1122L195,1085L158,1092L151,1070L150,1061L136,1058L116,1060L112,1050L108,1045L99,1041L98,1024L101,1009L101,996L142,998L149,993L170,986L183,983L191,950L185,945L187,932L187,912L190,904L253,901L314,904L320,915L329,925L332,932L334,931L333,926L331,919L329,917L332,916L328,907L341,909L356,908L367,898L380,908L407,914L420,918L424,904L424,899L422,899L422,884L419,878L420,874L410,871L411,866L391,857L398,825L389,819L379,817L342,818L326,816L326,777L328,764L323,742L318,742L304,756L288,755L284,758L264,738L235,736L249,635L244,630L208,624L203,620L201,613L203,606L207,602L235,598L181,544L159,546L161,549L156,547L145,547L101,549L91,557L86,559L79,556L63,542L59,541L11,555L8,553L0,526L1,523L10,514L27,513L46,507L51,501L81,491L93,488L99,496L112,492L113,490L112,485L102,474L100,462L101,454L110,445L110,443L111,445L115,442L128,449L140,452L157,468L193,464L223,457L239,451L242,444L240,442L250,429L262,438L268,445L372,413L410,401L446,447L453,444L470,443L481,438L501,425L503,423L507,423L530,411L542,403L545,399L535,381L534,356L531,354L563,342L568,342L573,339L580,332L576,327L580,320L578,316L586,307L591,309L594,303L606,313L605,311L610,310L617,306L619,313L619,317L630,328L644,333L647,337L649,334L687,333L683,349L681,374L677,395L684,418L684,442L685,443L687,442L691,452L700,469L700,485L752,475L791,483L836,485L848,490L862,491L889,497L911,501L932,507L944,507L986,516L992,514L986,499L992,495L987,485L980,455L963,417L981,388L1001,366L983,362L983,344L982,342L985,284L972,286L972,272L978,269L982,261L987,258L998,256L1002,242L990,240L991,234L994,235L995,232L1005,223L1013,211L1024,206L1042,180L1064,172L1070,168L1076,175L1080,176L1092,177L1112,174L1117,178L1116,180L1125,184L1135,185L1139,189L1150,192L1157,197L1164,199L1175,199L1182,195L1204,199L1209,210L1212,206L1216,208L1222,214L1219,218L1229,223L1243,237L1243,243L1248,260L1247,262L1253,268L1257,270L1266,269L1273,263L1273,260L1278,261L1281,260L1285,248L1292,250L1299,252L1300,250L1312,203L1329,209L1335,209L1347,216L1361,220L1366,213L1377,215L1384,213L1390,214L1393,212L1396,213L1402,211L1416,214L1422,212L1427,214L1435,212L1437,207L1450,205L1464,207L1464,205L1467,205L1474,203L1462,196L1462,166L1483,171L1505,170L1506,172L1516,172L1516,170L1526,169L1526,164L1528,164L1526,122L1584,114L1586,133L1694,144L1697,138L1757,139L1784,133L1783,118L1790,78L1795,76L1811,75L1817,48L1819,29L1834,28L1898,38L1913,38L1915,17L1912,11L2002,23L2042,33L2105,47L2124,19L2177,16L2178,21L2194,18L2195,22L2199,21L2251,10L2255,0Z" fill="firebrick"/></a></g>
 <desc>Praha, hlavní město v okrese Hlavní město Praha, schematická mapa, Hlavní město Praha, okres</desc><text x="0" y="61.26" style="font-size: 123px;background-color:#fff;fill-opacity=0.2">Obec Praha, okres Hlavní město Praha</text><a href="https://www.kurzy.cz/"><g transform="translate(0,2315.80666667) scale(2.05666666667)" style="opacity:0.5"><rect transform="translate(-10,-5)" x="0" y="0" width="226" height="65" rx="5" style="fill:#fff"/><g id="lk" fill="#000"><path d="M2.152,0H0v45.134h2.451c0,0,0-14.058,0-14.335c0.207-0.171,8.629-7.138,9.072-7.504c0.373,0.47,17.314,21.839,17.314,21.839h3.234c0,0-18.332-23.042-18.691-23.493c0.441-0.366,17.807-14.787,17.807-14.787H27.52c0,0-24.121,20.045-25.068,20.831c0-1.221,0-27.685,0-27.685H2.152z"/><path d="M60.747,6.854h-2.152V31.87c0,7.303-4.223,11.67-11.297,11.683c-7.105-0.013-11.35-4.38-11.35-11.683V6.854h-2.449v25.233c0,8.585,5.277,13.918,13.772,13.918c8.497,0,13.774-5.333,13.774-13.918V6.854H60.747z"/><path d="M81.821,6.854h-3.788c-8.497,0-13.775,5.333-13.775,13.917v24.338h2.453v-24.12c0-7.317,4.232-11.686,11.322-11.686l4.088,0.003V6.854H81.821z"/><path d="M111.185,6.854H84.807v2.448c0,0,22.484,0,23.64,0c-0.719,0.938-25.597,33.35-25.597,33.35v2.481h29.793v-2.451c0,0-25.594,0-26.757,0c0.72-0.938,25.598-33.348,25.598-33.348V6.854H111.185z"/><path d="M145.48,6.854h-2.16c0,0-12.514,33.117-13.025,34.47c-0.561-1.335-14.44-34.47-14.44-34.47h-2.685c0,0,15.714,37.197,15.812,37.425c-0.092,0.225-3.941,9.647-3.941,9.647h2.676l18.201-47.072H145.48z"/></g><g id="lc" fill="Goldenrod"><path d="M143.58,26.713c0,11.392,7.057,19.348,17.158,19.348c8.801,0,15.018-5.54,15.838-14.113l0.053-0.548h-2.475l-0.035,0.461c-0.545,7.021-5.924,11.739-13.381,11.739c-10.152,0-14.697-8.481-14.697-16.887c0-8.94,4.092-18.494,15.572-18.494c6.611,0,11.178,3.885,12.219,10.391c0,0.001,0.068,0.421,0.068,0.421h2.449l-0.066-0.559c-0.906-7.605-6.803-12.715-14.67-12.715C148.303,5.758,143.58,17.046,143.58,26.713z"/><path d="M204.742,6.635h-26.561v2.461c0,0,22.656,0,23.813,0c-0.719,0.938-25.785,33.593-25.785,33.593v2.496h30.002v-2.461c0,0-25.791,0-26.953,0c0.719-0.938,25.783-33.593,25.783-33.593V6.635H204.742z"/></g></g></a>
</svg>